<?xml version="1.0" encoding="UTF-8" standalone="no"?><!DOCTYPE svg PUBLIC "-//W3C//DTD SVG 1.1//EN" "http://www.w3.org/Graphics/SVG/1.1/DTD/svg11.dtd"><svg width="100%" height="100%" viewBox="0 0 261 142" version="1.1" xmlns="http://www.w3.org/2000/svg" xmlns:xlink="http://www.w3.org/1999/xlink" xml:space="preserve" xmlns:serif="http://www.serif.com/" style="fill-rule:evenodd;clip-rule:evenodd;stroke-linejoin:round;stroke-miterlimit:1.41421;"><rect x="0" y="0" width="260.976" height="141.587" style="fill:#e4ddce;"/><path d="M0.052,24.034c0.195,-0.33 0.961,-0.645 2.297,-0.892l122.453,-22.707c3.131,-0.58 8.252,-0.58 11.383,0l122.455,22.707c1.337,0.247 2.102,0.562 2.297,0.892l0.052,0l0,117.466l-260.989,0l0,-117.466l0.052,0Z" style="fill:#b19a79;"/><path d="M0.049,88.942c0.167,-0.331 0.938,-0.655 2.313,-0.909l122.44,-22.6c3.131,-0.578 8.252,-0.578 11.382,0l122.443,22.6c1.57,0.29 2.351,0.671 2.349,1.052l0,52.415l-260.963,0l0,-52.415l0.036,-0.143Z" style="fill:#746451;"/></svg>