<?xml version="1.0" encoding="UTF-8" standalone="no"?>
<!DOCTYPE svg PUBLIC "-//W3C//DTD SVG 1.1//EN" "http://www.w3.org/Graphics/SVG/1.1/DTD/svg11.dtd">
<svg width="100%" height="100%" viewBox="0 0 29 29" version="1.1" xmlns="http://www.w3.org/2000/svg" xmlns:xlink="http://www.w3.org/1999/xlink" xml:space="preserve" style="fill-rule:evenodd;clip-rule:evenodd;stroke-linejoin:round;stroke-miterlimit:1.41421;">
    <g transform="matrix(1,0,0,1,0,-3.63793)">
        <path d="M26.15,29.638L2.85,29.638C1.277,29.638 0,28.361 0,26.788L0,13.488C0,11.915 1.276,10.639 2.85,10.638L26.15,10.638C27.724,10.639 29,11.915 29,13.488L29,26.788C29,28.36 27.724,29.637 26.15,29.638ZM15,13.638C18.863,13.638 22,16.775 22,20.638C22,24.501 18.863,27.638 15,27.638C11.137,27.638 8,24.501 8,20.638C8,16.775 11.137,13.638 15,13.638ZM15,15.388C17.898,15.388 20.25,17.74 20.25,20.638C20.25,23.535 17.898,25.888 15,25.888C12.102,25.888 9.75,23.535 9.75,20.638C9.75,17.74 12.102,15.388 15,15.388ZM22,10.638L8,10.638C8,10.638 9.725,8.666 10.753,7.492C11.228,6.949 11.914,6.638 12.634,6.638C13.937,6.638 16.063,6.638 17.366,6.638C18.086,6.638 18.772,6.949 19.247,7.492C20.275,8.666 22,10.638 22,10.638ZM7,8.638L7,10.138L3,10.138L3,8.638L7,8.638Z" style="fill:white;"/>
    </g>
</svg>
