<?xml version="1.0" encoding="UTF-8" standalone="no"?>
<!DOCTYPE svg PUBLIC "-//W3C//DTD SVG 1.1//EN" "http://www.w3.org/Graphics/SVG/1.1/DTD/svg11.dtd">
<svg width="100%" height="100%" viewBox="0 0 29 29" version="1.1" xmlns="http://www.w3.org/2000/svg" xmlns:xlink="http://www.w3.org/1999/xlink" xml:space="preserve" style="fill-rule:evenodd;clip-rule:evenodd;stroke-linejoin:round;stroke-miterlimit:1.41421;">
    <g transform="matrix(1.26087,0,0,1.26087,-4.41304,-3.78261)">
        <g>
            <path d="M15,26L13.672,19.816C14.095,19.938 14.54,20 15,20C15.46,20 15.905,19.938 16.328,19.816L15,26ZM15.06,10.334C15.739,10.347 16.409,10.498 17.022,10.794C17.529,11.038 17.99,11.374 18.377,11.781C18.714,12.134 18.995,12.539 19.206,12.978C19.681,13.963 19.792,15.107 19.52,16.166C19.434,16.497 19.312,16.819 19.156,17.124C18.934,17.557 18.643,17.955 18.299,18.299C17.875,18.724 17.369,19.066 16.816,19.3C16.243,19.542 15.622,19.667 15,19.667C14.378,19.667 13.757,19.542 13.184,19.3C12.631,19.066 12.125,18.724 11.701,18.299C11.357,17.955 11.066,17.557 10.844,17.124C10.688,16.819 10.566,16.497 10.48,16.166C10.208,15.107 10.319,13.963 10.794,12.978C11.005,12.539 11.286,12.134 11.623,11.781C12.01,11.374 12.471,11.038 12.978,10.794C13.572,10.507 14.221,10.356 14.88,10.335C14.94,10.334 15,10.333 15.06,10.334ZM14.944,10.667C14.313,10.679 13.691,10.82 13.122,11.094C12.652,11.321 12.224,11.633 11.864,12.011C11.552,12.339 11.291,12.715 11.094,13.122C10.653,14.037 10.55,15.099 10.803,16.083C10.882,16.39 10.996,16.689 11.141,16.972C11.347,17.374 11.617,17.744 11.937,18.063C12.331,18.458 12.801,18.775 13.314,18.993C13.829,19.211 14.385,19.326 14.944,19.333C15.505,19.34 16.066,19.239 16.588,19.033C17.043,18.853 17.466,18.596 17.835,18.276C18.176,17.98 18.471,17.632 18.706,17.246C18.888,16.946 19.034,16.623 19.138,16.288C19.451,15.284 19.384,14.177 18.95,13.218C18.778,12.837 18.55,12.481 18.276,12.165C17.889,11.718 17.411,11.351 16.878,11.094C16.326,10.828 15.724,10.687 15.112,10.668C15.056,10.667 15,10.667 14.944,10.667ZM15,12C16.656,12 18,13.344 18,15C18,16.656 16.656,18 15,18C13.344,18 12,16.656 12,15C12,13.344 13.344,12 15,12ZM10.412,13.016C10.147,13.622 10,14.294 10,15C10,15.313 10.029,15.62 10.088,15.915L3.5,14.5L10.412,13.016ZM26.5,14.5L19.912,15.915C19.971,15.62 20,15.313 20,15C20,14.294 19.853,13.622 19.588,13.016L26.5,14.5ZM16.557,10.251C16.065,10.087 15.542,10 15,10C14.458,10 13.935,10.087 13.443,10.251L15,3L16.557,10.251Z" style="fill:white;"/>
        </g>
    </g>
</svg>
