<?xml version="1.0" encoding="UTF-8" standalone="no"?>
<!DOCTYPE svg PUBLIC "-//W3C//DTD SVG 1.1//EN" "http://www.w3.org/Graphics/SVG/1.1/DTD/svg11.dtd">
<svg width="100%" height="100%" viewBox="0 0 29 29" version="1.1" xmlns="http://www.w3.org/2000/svg" xmlns:xlink="http://www.w3.org/1999/xlink" xml:space="preserve" xmlns:serif="http://www.serif.com/" style="fill-rule:evenodd;clip-rule:evenodd;stroke-linejoin:round;stroke-miterlimit:1.41421;">
    <path d="M29,14.5L14.5,0L0,14.5L14.5,29L29,14.5ZM16.265,19.686L12.416,19.686L12.416,23.462L16.265,23.462L16.265,19.686ZM8.468,11.595L12.073,11.595C12.073,11.153 12.122,10.74 12.22,10.356C12.318,9.972 12.469,9.637 12.673,9.351C12.878,9.065 13.139,8.836 13.458,8.664C13.777,8.493 14.157,8.407 14.598,8.407C15.252,8.407 15.763,8.587 16.131,8.946C16.498,9.306 16.682,9.862 16.682,10.614C16.699,11.055 16.621,11.423 16.449,11.717C16.278,12.011 16.053,12.281 15.775,12.526C15.497,12.771 15.195,13.017 14.868,13.262C14.541,13.507 14.23,13.797 13.936,14.132C13.642,14.467 13.384,14.872 13.164,15.346C12.943,15.82 12.808,16.408 12.759,17.111L12.759,18.215L16.069,18.215L16.069,17.283C16.135,16.793 16.294,16.384 16.547,16.057C16.801,15.73 17.091,15.44 17.418,15.187C17.745,14.933 18.092,14.68 18.46,14.426C18.828,14.173 19.163,13.867 19.465,13.507C19.767,13.147 20.021,12.714 20.225,12.207C20.43,11.701 20.532,11.055 20.532,10.27C20.532,9.796 20.43,9.286 20.225,8.738C20.021,8.19 19.682,7.68 19.208,7.206C18.734,6.732 18.108,6.335 17.332,6.016C16.556,5.698 15.587,5.538 14.426,5.538C13.527,5.538 12.714,5.69 11.987,5.992C11.259,6.294 10.638,6.715 10.123,7.255C9.608,7.794 9.208,8.432 8.922,9.167C8.636,9.903 8.485,10.712 8.468,11.595Z" style="fill:rgb(177,154,121);"/>
</svg>
