<?xml version="1.0" encoding="UTF-8" standalone="no"?>
<!DOCTYPE svg PUBLIC "-//W3C//DTD SVG 1.1//EN" "http://www.w3.org/Graphics/SVG/1.1/DTD/svg11.dtd">
<svg width="100%" height="100%" viewBox="0 0 29 29" version="1.1" xmlns="http://www.w3.org/2000/svg" xmlns:xlink="http://www.w3.org/1999/xlink" xml:space="preserve" style="fill-rule:evenodd;clip-rule:evenodd;stroke-linejoin:round;stroke-miterlimit:1.41421;">
    <g transform="matrix(-1,0,-0,1,29,0)">
        <path d="M28.963,15.479C28.465,23.025 22.175,29 14.5,29C6.497,29 0,22.503 0,14.5C0,6.497 6.497,0 14.5,0C22.175,0 28.465,5.975 28.963,13.521L26.266,10.823C24.699,5.813 20.021,2.175 14.5,2.175C7.698,2.175 2.175,7.698 2.175,14.5C2.175,21.302 7.698,26.825 14.5,26.825C20.021,26.825 24.699,23.187 26.266,18.177L28.963,15.479Z" style="fill:white;"/>
        <g transform="matrix(1,1.26688e-16,1.26688e-16,0.482759,14.5,7.5)">
            <path d="M0,21.75L0,7.25L7.5,7.25L7.5,0L14.5,14.5L7.5,29L7.5,21.75L0,21.75Z" style="fill:white;"/>
        </g>
    </g>
</svg>
