<?xml version="1.0" encoding="UTF-8" standalone="no"?>
<!DOCTYPE svg PUBLIC "-//W3C//DTD SVG 1.1//EN" "http://www.w3.org/Graphics/SVG/1.1/DTD/svg11.dtd">
<svg width="100%" height="100%" viewBox="0 0 29 29" version="1.1" xmlns="http://www.w3.org/2000/svg" xmlns:xlink="http://www.w3.org/1999/xlink" xml:space="preserve" style="fill-rule:evenodd;clip-rule:evenodd;stroke-linejoin:round;stroke-miterlimit:1.41421;">
    <g transform="matrix(1,0,0,1,0,-0.637933)">
        <path d="M19.841,12.46L20,12.5L29,10C29,15.5 29,21 29,26.5L20,29L10,26.5L0,29L0,12.5L9.682,10.079L10.066,11.319L10.093,11.398L10,11.374C7.111,12.097 4.222,12.819 1.333,13.541L1.333,27.292L10,25.126L19.982,27.621L27.667,25.487L27.667,11.754L20.018,13.879L19.372,13.717L19.383,13.69C19.541,13.282 19.694,12.872 19.841,12.46ZM11.137,10.284L18.54,12.135L18.412,12.49L18.068,13.391L11.638,11.784L11.527,11.475C11.39,11.08 11.258,10.682 11.137,10.284Z" style="fill:white;"/>
        <g transform="matrix(2.79769,0,0,2.79769,-40.802,-29.9286)">
            <path d="M20,17.846C20,17.846 18.267,14.375 18.267,12.887C18.267,11.93 19.044,11.154 20,11.154C20.956,11.154 21.733,11.93 21.733,12.887C21.733,14.375 20,17.846 20,17.846ZM20,12.25C20.414,12.25 20.75,12.586 20.75,13C20.75,13.414 20.414,13.75 20,13.75C19.586,13.75 19.25,13.414 19.25,13C19.25,12.586 19.586,12.25 20,12.25Z" style="fill:white;"/>
        </g>
    </g>
</svg>
