<?xml version="1.0" encoding="UTF-8" standalone="no"?>
<!DOCTYPE svg PUBLIC "-//W3C//DTD SVG 1.1//EN" "http://www.w3.org/Graphics/SVG/1.1/DTD/svg11.dtd">
<svg width="100%" height="100%" viewBox="0 0 29 29" version="1.1" xmlns="http://www.w3.org/2000/svg" xmlns:xlink="http://www.w3.org/1999/xlink" xml:space="preserve" style="fill-rule:evenodd;clip-rule:evenodd;stroke-linejoin:round;stroke-miterlimit:1.41421;">
    <g>
        <path d="M15.921,0.07C14.976,-0.023 14.024,-0.023 13.079,0.07L12.76,3.031C11.909,3.16 11.074,3.384 10.272,3.698L8.516,1.292C7.651,1.684 6.826,2.16 6.054,2.714L7.259,5.438C6.586,5.975 5.975,6.586 5.438,7.259L2.714,6.054C2.16,6.826 1.684,7.651 1.292,8.516L3.698,10.272C3.384,11.074 3.16,11.909 3.031,12.76L0.07,13.079C-0.023,14.024 -0.023,14.976 0.07,15.921L3.031,16.24C3.16,17.091 3.384,17.926 3.698,18.728L1.292,20.484C1.684,21.349 2.16,22.174 2.714,22.946L5.438,21.741C5.975,22.414 6.586,23.025 7.259,23.562L6.054,26.286C6.826,26.84 7.651,27.316 8.516,27.708L10.272,25.302C11.074,25.616 11.909,25.84 12.76,25.969L13.079,28.93C14.024,29.023 14.976,29.023 15.921,28.93L16.24,25.969C17.091,25.84 17.926,25.616 18.728,25.302L20.484,27.708C21.349,27.316 22.174,26.84 22.946,26.286L21.741,23.562C22.414,23.025 23.025,22.414 23.562,21.741L26.286,22.946C26.84,22.174 27.316,21.349 27.708,20.484L25.302,18.728C25.616,17.926 25.84,17.091 25.969,16.24L28.93,15.921C29.023,14.976 29.023,14.024 28.93,13.079L25.969,12.76C25.84,11.909 25.616,11.074 25.302,10.272L27.708,8.516C27.316,7.651 26.84,6.826 26.286,6.054L23.562,7.259C23.025,6.586 22.414,5.975 21.741,5.438L22.946,2.714C22.174,2.16 21.349,1.684 20.484,1.292L18.728,3.698C17.926,3.384 17.091,3.16 16.24,3.031L15.921,0.07ZM14.5,7.25C18.501,7.25 21.75,10.499 21.75,14.5C21.75,18.501 18.501,21.75 14.5,21.75C10.499,21.75 7.25,18.501 7.25,14.5C7.25,10.499 10.499,7.25 14.5,7.25Z" style="fill:white;"/>
    </g>
</svg>
