<?xml version="1.0" encoding="UTF-8" standalone="no"?>
<!DOCTYPE svg PUBLIC "-//W3C//DTD SVG 1.1//EN" "http://www.w3.org/Graphics/SVG/1.1/DTD/svg11.dtd">
<svg width="100%" height="100%" viewBox="0 0 1000 1618" version="1.1" xmlns="http://www.w3.org/2000/svg" xmlns:xlink="http://www.w3.org/1999/xlink" xml:space="preserve" style="fill-rule:evenodd;clip-rule:evenodd;stroke-linejoin:round;stroke-miterlimit:1.41421;">
    <g transform="matrix(1,0,0,1,-309,-0)">
        <g>
            <path d="M618.029,498.872L618,500C618,605.416 703.584,691 809,691L809.665,690.983L811.016,690.999C812.769,690.998 814.523,690.994 816.276,690.988C825.61,690.954 834.944,690.855 844.276,690.689C877.668,690.097 911.046,688.668 944.364,686.371C964.481,684.985 984.577,683.28 1004.64,681.237C1023.55,679.311 1042.42,677.085 1061.25,674.525C1079.35,672.065 1097.41,669.298 1115.4,666.178C1131.58,663.373 1147.7,660.284 1163.76,656.859C1178.5,653.714 1193.17,650.286 1207.76,646.514C1220.62,643.188 1233.42,639.593 1246.11,635.665C1257.96,631.995 1269.73,628.034 1281.37,623.7C1285.47,622.17 1289.56,620.594 1293.59,618.961C1209.55,991.059 809,1618 809,1618C809,1618 551.747,1215.35 406.305,863.907L406.276,860.284C406.331,857.826 406.479,855.372 406.699,852.924C406.973,849.89 407.359,846.867 407.832,843.857C408.431,840.048 409.17,836.26 410.016,832.498C411.07,827.814 412.29,823.168 413.634,818.559C415.326,812.759 417.217,807.019 419.255,801.332C421.951,793.811 424.905,786.384 428.046,779.038C432.086,769.594 436.437,760.284 441.013,751.088C446.942,739.172 453.251,727.447 459.833,715.879C467.219,702.899 474.952,690.116 482.947,677.503C491.265,664.379 499.87,651.437 508.703,638.654C518.621,624.302 528.829,610.151 539.276,596.18C549.902,581.969 560.777,567.946 571.867,554.095C584.381,538.467 597.171,523.06 610.206,507.864L618.029,498.872Z" style="fill:rgb(0,122,255);"/>
            <path d="M675.285,363.714C671.843,367.088 668.528,370.591 665.369,374.229L654.877,384.898C629.175,411.336 604.198,438.482 580.018,466.318C567.167,481.111 554.542,496.101 542.166,511.294C530.166,526.025 518.399,540.947 506.899,556.071C495.848,570.605 485.042,585.326 474.529,600.254C465.081,613.669 455.868,627.25 446.944,641.019C439.003,653.27 431.29,665.671 423.863,678.241C416.88,690.061 410.149,702.032 403.749,714.178C397.97,725.144 392.46,736.254 387.313,747.531C382.546,757.976 378.088,768.567 374.068,779.323L373.652,780.489C334.348,673.706 309,575.517 309,500C309,480.115 310.163,460.5 312.464,441.216L320.319,437.362C327.54,433.942 334.877,430.77 342.289,427.789C351.818,423.956 361.473,420.439 371.207,417.162C383.819,412.915 396.566,409.072 409.394,405.533C423.788,401.563 438.289,397.979 452.856,394.7C468.485,391.182 484.193,388.016 499.953,385.142C516.633,382.099 533.373,379.383 550.154,376.949C568.236,374.326 586.366,372.031 604.527,370.028C623.894,367.892 643.298,366.088 662.725,364.593L675.285,363.714Z" style="fill:rgb(173,255,47);"/>
            <path d="M1236.23,240.262C1282.4,315.984 1309,404.91 1309,500C1309,518.489 1307.48,538.336 1304.54,559.323L1298.65,562.237C1291.48,565.663 1284.19,568.84 1276.83,571.825C1267.36,575.665 1257.76,579.189 1248.08,582.473C1235.53,586.731 1222.84,590.584 1210.07,594.132C1195.73,598.115 1181.29,601.71 1166.78,605C1151.2,608.532 1135.54,611.71 1119.83,614.597C1103.2,617.654 1086.5,620.384 1069.76,622.83C1051.72,625.469 1033.63,627.779 1015.5,629.797C995.623,632.01 975.703,633.871 955.758,635.407L942.679,636.32L944.031,635.031L944.979,634.037L945.211,633.817C946.449,632.576 947.687,631.333 948.922,630.089C955.499,623.465 962.029,616.795 968.511,610.078C991.708,586.044 1014.3,561.429 1036.25,536.243C1049.5,521.033 1062.51,505.614 1075.25,489.98C1087.27,475.245 1099.05,460.319 1110.56,445.189C1121.62,430.647 1132.44,415.917 1142.97,400.981C1152.43,387.556 1161.66,373.963 1170.6,360.183C1178.31,348.302 1185.8,336.282 1193.02,324.103C1200.27,311.882 1207.26,299.502 1213.89,286.934C1219.69,275.951 1225.22,264.824 1230.38,253.53C1232.39,249.142 1234.35,244.728 1236.23,240.262Z" style="fill:rgb(138,43,226);"/>
            <path d="M927.35,14.154C1037.54,40.927 1133.5,104.254 1201.63,190.559L1199.18,197.805C1196.53,205.302 1193.62,212.706 1190.51,220.029C1186.53,229.449 1182.22,238.734 1177.69,247.906C1171.82,259.798 1165.56,271.5 1159.03,283.044C1151.93,295.609 1144.49,307.989 1136.8,320.209C1128.05,334.124 1118.98,347.832 1109.64,361.362C1100.03,375.293 1090.15,389.035 1080.04,402.606C1069.77,416.385 1059.27,429.986 1048.56,443.425C1035.77,459.478 1022.69,475.297 1009.34,490.893L999.957,501.704L1000,500C1000,496.584 999.91,493.188 999.723,489.81L999.46,464.986C998.87,431.591 997.445,398.209 995.155,364.887C993.849,345.868 992.259,326.868 990.368,307.898C988.427,288.413 986.167,268.959 983.557,249.553C981.187,231.929 978.527,214.344 975.536,196.815C972.602,179.62 969.351,162.477 965.72,145.415C962.678,131.119 959.37,116.879 955.74,102.72C952.325,89.403 948.626,76.158 944.57,63.021C940.908,51.158 936.954,39.382 932.627,27.743C930.932,23.185 929.179,18.647 927.35,14.154Z" style="fill:rgb(255,0,0);"/>
            <path d="M499.58,107.349L507.679,110.115C515.197,112.797 522.622,115.738 529.965,118.868C539.405,122.891 548.712,127.226 557.905,131.787C569.817,137.696 581.539,143.985 593.103,150.548C606.079,157.913 618.857,165.626 631.467,173.601C645.408,182.418 659.143,191.559 672.7,200.956C686.228,210.333 699.578,219.966 712.768,229.814C727.401,240.741 741.836,251.932 756.087,263.353C771.286,275.533 786.276,287.974 801.064,300.649L810.723,309.044L809.338,309.009L809.251,309L809.004,309L809,309L808.995,309L807.508,309.001C797.002,309.015 786.497,309.104 775.993,309.28C755.724,309.622 735.46,310.273 715.211,311.238C694.731,312.213 674.267,313.508 653.83,315.137C631.732,316.898 609.666,319.048 587.649,321.624C567.521,323.98 547.434,326.691 527.41,329.807C508.824,332.699 490.291,335.939 471.839,339.592C454.895,342.946 438.017,346.648 421.244,350.779C406.005,354.532 390.85,358.639 375.831,363.198C361.944,367.413 348.171,372.015 334.59,377.134L323.156,381.639C349.932,271.433 413.274,175.469 499.58,107.349Z" style="fill:rgb(255,215,0);"/>
            <path d="M549.29,72.757C625.017,26.592 713.928,0 809,0C828.885,0 848.5,1.163 867.759,3.461L871.578,11.249C874.994,18.463 878.16,25.794 881.136,33.2C884.963,42.722 888.474,52.37 891.745,62.097C895.984,74.7 899.821,87.438 903.352,100.258C907.314,114.644 910.891,129.135 914.163,143.693C917.673,159.314 920.832,175.014 923.699,190.765C926.735,207.439 929.444,224.171 931.871,240.944C934.336,257.967 936.509,275.032 938.423,292.126C940.647,311.995 942.519,331.903 944.067,351.836L945.069,366.058L944.031,364.969L943.302,364.274L942.73,363.703C934.88,355.873 926.97,348.103 918.993,340.403C896.187,318.391 872.856,296.92 849.012,276.037C824.733,254.772 799.921,234.111 774.544,214.169C761.955,204.275 749.226,194.559 736.348,185.046C723.535,175.581 710.575,166.316 697.453,157.286C685.713,149.207 673.843,141.317 661.829,133.653C650.025,126.123 638.081,118.811 625.978,111.773C617.178,106.655 608.294,101.683 599.315,96.887C590.787,92.332 582.174,87.935 573.464,83.738C565.581,79.938 557.618,76.302 549.567,72.87L549.29,72.757Z" style="fill:rgb(255,165,0);"/>
        </g>
    </g>
</svg>
