<?xml version="1.0" encoding="UTF-8" standalone="no"?><!DOCTYPE svg PUBLIC "-//W3C//DTD SVG 1.1//EN" "http://www.w3.org/Graphics/SVG/1.1/DTD/svg11.dtd"><svg width="100%" height="100%" viewBox="0 0 1000 1618" version="1.1" xmlns="http://www.w3.org/2000/svg" xmlns:xlink="http://www.w3.org/1999/xlink" xml:space="preserve" style="fill-rule:evenodd;clip-rule:evenodd;stroke-linejoin:round;stroke-miterlimit:1.41421;"><g><path d="M908.941,848.623c-144.181,354.975 -408.941,769.377 -408.941,769.377c0,0 -264.76,-414.402 -408.941,-769.377c98.608,115.575 245.282,188.877 408.941,188.877c163.659,0 310.333,-73.302 408.941,-188.877Z" style="fill:#808080;"/><path d="M363.717,633.718c3.47,3.54 7.077,6.946 10.851,10.207l14.095,13.849c28.906,27.953 58.649,55.044 89.217,81.171c16.452,14.062 33.145,27.843 50.09,41.307c16.313,12.961 32.859,25.63 49.66,37.953c15.19,11.142 30.589,22.001 46.221,32.514c14.36,9.657 28.919,19.022 43.706,28.013c13.808,8.396 27.818,16.468 42.065,24.098c12.793,6.853 25.778,13.353 38.995,19.351l11.292,4.924c-75.753,46.251 -164.744,72.895 -259.909,72.895c-19.88,0 -39.49,-1.163 -58.763,-3.446l-3.468,-7.018c-3.427,-7.181 -6.604,-14.481 -9.589,-21.856c-3.841,-9.488 -7.366,-19.103 -10.65,-28.797c-4.258,-12.569 -8.112,-25.273 -11.66,-38.06c-3.983,-14.355 -7.579,-28.817 -10.869,-43.346c-3.532,-15.596 -6.71,-31.27 -9.597,-46.998c-3.057,-16.652 -5.787,-33.364 -8.234,-50.117c-2.869,-19.639 -5.351,-39.335 -7.49,-59.067c-1.984,-18.312 -3.674,-36.655 -5.087,-55.02l-0.876,-12.557Z" style="fill:#808080;"/><path d="M309.029,498.872l-0.019,0.752l-0.01,0.125l0,0.246l0,0.005l0,0.005l0.001,1.487c0.001,1.169 0.003,2.338 0.006,3.507c0.009,3.504 0.028,7.009 0.056,10.514c0.079,9.905 0.233,19.81 0.461,29.713c0.714,31.042 2.152,62.068 4.342,93.041c1.342,18.994 2.969,37.969 4.897,56.913c1.98,19.45 4.277,38.868 6.928,58.238c2.405,17.582 5.102,35.125 8.131,52.611c2.887,16.668 6.075,33.285 9.622,49.825c3.061,14.274 6.389,28.492 10.04,42.627c3.434,13.292 7.152,26.511 11.229,39.62c3.563,11.456 7.399,22.828 11.583,34.072c1.707,4.586 3.472,9.151 5.318,13.681c-110.145,-26.772 -206.063,-90.072 -274.165,-176.343l2.806,-8.179c2.696,-7.521 5.65,-14.948 8.791,-22.294c4.04,-9.444 8.391,-18.754 12.967,-27.95c5.929,-11.916 12.238,-23.641 18.82,-35.209c7.386,-12.98 15.119,-25.763 23.114,-38.376c8.318,-13.124 16.923,-26.066 25.756,-38.849c9.918,-14.352 20.126,-28.503 30.573,-42.474c10.626,-14.211 21.501,-28.234 32.591,-42.085c12.514,-15.628 25.304,-31.035 38.339,-46.231l7.823,-8.992Z" style="fill:#808080;"/><path d="M366.285,363.714c-3.442,3.374 -6.757,6.877 -9.916,10.515l-10.492,10.669c-25.702,26.438 -50.679,53.584 -74.859,81.42c-12.851,14.793 -25.476,29.783 -37.852,44.976c-12,14.731 -23.767,29.653 -35.267,44.777c-11.051,14.534 -21.857,29.255 -32.37,44.183c-9.448,13.415 -18.661,26.996 -27.585,40.765c-7.941,12.251 -15.654,24.652 -23.081,37.222c-6.983,11.82 -13.714,23.791 -20.114,35.937c-5.779,10.966 -11.289,22.076 -16.436,33.353l-5.411,12.371c-20.7,-33.891 -37.477,-70.476 -49.691,-109.083c-13.82,-52.468 -22.115,-100.7 -23.105,-142.417l-0.106,-8.402c0,-19.885 1.163,-39.5 3.464,-58.784l7.855,-3.854c7.221,-3.42 14.558,-6.592 21.97,-9.573c9.529,-3.833 19.184,-7.35 28.918,-10.627c12.612,-4.247 25.359,-8.09 38.187,-11.629c14.394,-3.97 28.895,-7.554 43.462,-10.833c15.629,-3.518 31.337,-6.684 47.097,-9.558c16.68,-3.043 33.42,-5.759 50.201,-8.193c18.082,-2.623 36.212,-4.918 54.373,-6.921c19.367,-2.136 38.771,-3.94 58.198,-5.435l12.56,-0.879Z" style="fill:#808080;"/><path d="M190.58,107.349l8.099,2.766c7.518,2.682 14.943,5.623 22.286,8.753c9.44,4.023 18.747,8.358 27.94,12.919c11.912,5.909 23.634,12.198 35.198,18.761c12.976,7.365 25.754,15.078 38.364,23.053c13.941,8.817 27.676,17.958 41.233,27.355c13.528,9.377 26.878,19.01 40.068,28.858c14.633,10.927 29.068,22.118 43.319,33.539c15.199,12.18 30.189,24.621 44.977,37.296l9.659,8.395l-1.385,-0.035l-0.087,-0.009l-0.247,0l-0.004,0l-0.005,0l-1.487,0.001c-10.506,0.014 -21.011,0.103 -31.515,0.279c-20.269,0.342 -40.533,0.993 -60.782,1.958c-20.48,0.975 -40.944,2.27 -61.381,3.899c-22.098,1.761 -44.164,3.911 -66.181,6.487c-20.128,2.356 -40.215,5.067 -60.239,8.183c-18.586,2.892 -37.119,6.132 -55.571,9.785c-16.944,3.354 -33.822,7.056 -50.595,11.187c-15.239,3.753 -30.394,7.86 -45.413,12.419c-13.887,4.215 -27.66,8.817 -41.241,13.936l-11.434,4.505c26.776,-110.206 90.118,-206.17 176.424,-274.29Z" style="fill:#808080;"/><path d="M240.29,72.757c75.727,-46.165 164.638,-72.757 259.71,-72.757c19.864,0 39.46,1.161 58.752,3.446l3.826,7.803c3.416,7.214 6.582,14.545 9.558,21.951c3.827,9.522 7.338,19.17 10.609,28.897c4.239,12.603 8.076,25.341 11.607,38.161c3.962,14.386 7.539,28.877 10.811,43.435c3.51,15.621 6.669,31.321 9.536,47.072c3.036,16.674 5.745,33.406 8.172,50.179c2.465,17.023 4.638,34.088 6.552,51.182c2.224,19.869 4.096,39.777 5.644,59.71l1.002,14.222l-1.038,-1.089l-0.729,-0.695l-0.572,-0.571c-7.85,-7.83 -15.76,-15.6 -23.737,-23.3c-22.806,-22.012 -46.137,-43.483 -69.981,-64.366c-24.279,-21.265 -49.091,-41.926 -74.468,-61.868c-12.589,-9.894 -25.318,-19.61 -38.196,-29.123c-12.813,-9.465 -25.773,-18.73 -38.895,-27.76c-11.74,-8.079 -23.61,-15.969 -35.624,-23.633c-11.804,-7.53 -23.748,-14.842 -35.851,-21.88c-8.8,-5.118 -17.684,-10.09 -26.663,-14.886c-8.528,-4.555 -17.141,-8.952 -25.851,-13.149c-7.883,-3.8 -15.846,-7.436 -23.897,-10.868l-0.277,-0.113Z" style="fill:#808080;"/><path d="M618.336,14.12c38.323,9.308 74.909,23.037 109.208,40.614c8.771,4.494 17.391,9.241 25.813,14.248c5.421,3.195 10.777,6.488 16.056,9.834l10.061,6.625c4.9,3.312 9.739,6.709 14.507,10.227c16.732,12.186 32.68,25.385 47.733,39.5c18.325,17.162 35.358,35.689 50.918,55.399l-2.45,7.238c-2.653,7.497 -5.566,14.901 -8.668,22.224c-3.989,9.42 -8.294,18.705 -12.823,27.877c-5.873,11.892 -12.128,23.594 -18.657,35.138c-7.108,12.565 -14.544,24.945 -22.23,37.165c-8.751,13.915 -17.828,27.623 -27.162,41.153c-9.611,13.931 -19.495,27.673 -29.607,41.244c-10.267,13.779 -20.769,27.38 -31.476,40.819c-12.79,16.053 -25.874,31.872 -39.217,47.468l-9.385,10.811l0.043,-1.704c0,-3.416 -0.09,-6.812 -0.277,-10.19l-0.263,-24.824c-0.59,-33.395 -2.015,-66.777 -4.305,-100.099c-1.306,-19.019 -2.896,-38.019 -4.787,-56.989c-1.941,-19.485 -4.201,-38.939 -6.811,-58.345c-2.37,-17.624 -5.03,-35.209 -8.021,-52.738c-2.934,-17.195 -6.185,-34.338 -9.816,-51.4c-3.042,-14.296 -6.35,-28.536 -9.98,-42.695c-3.415,-13.317 -7.114,-26.562 -11.17,-39.699c-3.662,-11.863 -7.616,-23.639 -11.943,-35.278c-1.698,-4.564 -3.452,-9.109 -5.291,-13.623Z" style="fill:#808080;"/><path d="M927.216,240.285c46.175,75.677 72.784,164.613 72.784,259.715l-0.106,8.402c-0.383,16.049 -1.845,33.056 -4.304,50.896l-5.938,2.939c-7.169,3.426 -14.457,6.603 -21.82,9.588c-9.474,3.84 -19.074,7.364 -28.755,10.648c-12.551,4.258 -25.237,8.111 -38.007,11.659c-14.337,3.983 -28.781,7.578 -43.293,10.868c-15.578,3.532 -31.235,6.71 -46.945,9.597c-16.636,3.057 -33.332,5.787 -50.069,8.233c-18.044,2.639 -36.135,4.949 -54.258,6.967c-19.882,2.213 -39.802,4.074 -59.747,5.61l-13.079,0.913l1.352,-1.289l0.948,-0.994l0.232,-0.22c1.238,-1.241 2.476,-2.484 3.711,-3.728c6.577,-6.624 13.107,-13.294 19.589,-20.011c23.197,-24.034 45.793,-48.649 67.734,-73.835c13.25,-15.21 26.261,-30.629 39.007,-46.263c12.014,-14.735 23.794,-29.661 35.307,-44.791c11.065,-14.542 21.884,-29.272 32.411,-44.208c9.462,-13.425 18.689,-27.018 27.628,-40.798c7.707,-11.881 15.199,-23.901 22.425,-36.08c7.251,-12.221 14.236,-24.601 20.868,-37.169c5.796,-10.983 11.325,-22.11 16.492,-33.404c2.008,-4.388 3.962,-8.802 5.833,-13.245Z" style="fill:#808080;"/><path d="M984.555,618.973c-2.308,10.413 -4.919,21.039 -7.766,31.846c-30.539,96.527 -89.6,180.417 -167.271,241.734l-8.186,-2.808c-7.521,-2.696 -14.948,-5.649 -22.293,-8.791c-9.444,-4.04 -18.754,-8.39 -27.95,-12.966c-11.916,-5.93 -23.642,-12.238 -35.21,-18.821c-12.98,-7.386 -25.762,-15.118 -38.376,-23.114c-13.534,-8.578 -26.875,-17.46 -40.047,-26.585c-13.941,-9.658 -27.694,-19.587 -41.276,-29.744c-13.785,-10.307 -27.394,-20.849 -40.839,-31.595c-16.055,-12.831 -31.877,-25.954 -47.477,-39.335l-8.992,-7.823l1.128,0.029l0.665,-0.017l1.351,0.016c1.753,-0.001 3.507,-0.005 5.26,-0.011c9.334,-0.034 18.668,-0.133 28,-0.299c33.392,-0.592 66.77,-2.021 100.088,-4.318c20.117,-1.386 40.213,-3.091 60.275,-5.134c18.906,-1.926 37.782,-4.152 56.614,-6.712c18.097,-2.46 36.154,-5.227 54.149,-8.347c16.175,-2.805 32.302,-5.894 48.357,-9.319c14.736,-3.145 29.413,-6.573 44.001,-10.345c12.863,-3.326 25.657,-6.921 38.349,-10.849c11.856,-3.67 23.625,-7.631 35.256,-11.965c4.081,-1.521 8.145,-3.087 12.19,-4.727Z" style="fill:#808080;"/></g></svg>