<?xml version="1.0" encoding="UTF-8" standalone="no"?>
<!DOCTYPE svg PUBLIC "-//W3C//DTD SVG 1.1//EN" "http://www.w3.org/Graphics/SVG/1.1/DTD/svg11.dtd">
<svg width="100%" height="100%" viewBox="0 0 1618 1618" version="1.1" xmlns="http://www.w3.org/2000/svg" xmlns:xlink="http://www.w3.org/1999/xlink" xml:space="preserve" style="fill-rule:evenodd;clip-rule:evenodd;stroke-linejoin:round;stroke-miterlimit:1.41421;">
    <g transform="matrix(1,0,0,1,309,0)">
        <path d="M500,1618C500,1618 0,835.4 0,500C0,224.042 224.042,0 500,0C775.958,0 1000,224.042 1000,500C1000,835.4 500,1618 500,1618ZM500,309C605.416,309 691,394.584 691,500C691,605.416 605.416,691 500,691C394.584,691 309,605.416 309,500C309,394.584 394.584,309 500,309Z" style="fill:rgb(14,122,255);"/>
    </g>
</svg>
